<?xml version="1.0" encoding="utf-8"?>
<!-- Generator: Adobe Illustrator 19.0.0, SVG Export Plug-In . SVG Version: 6.00 Build 0)  -->
<svg version="1.1" id="Laag_1" xmlns="http://www.w3.org/2000/svg" xmlns:xlink="http://www.w3.org/1999/xlink" x="0px" y="0px"
	 viewBox="0 0 786.5 204.6" style="enable-background:new 0 0 786.5 204.6;" xml:space="preserve">
<style type="text/css">
	.st0{fill:#F26524;}
</style>
<g>
	<path class="st0" d="M180.7,68.8c-9-18.6-24.6-32.6-44.1-39.4c-8.2-2.9-16.8-4.3-25.4-4.3c-32.8,0-62.2,20.8-73,51.8
		c-4.3,12.2-5.4,25.4-3.3,38.2c0.2,1.2,0.4,2.3,0.6,3.3l1,4.8l13-6.2c13.4-6.4,22.3-15.8,27-28.8c3-8.3,7.6-14.5,13.6-18.6
		c10.9-7.4,23.3-9.6,34-5.9c3.9,1.4,7.6,3.5,11,6.3c-1.9,0.4-3.9,0.8-5.9,1.1c-12.4,1.6-17.4,5.9-20.5,17.8c-2.8,10.4-0.3,20,7.8,30
		c2.4,3,5.2,5.1,8.5,6.2c2,0.7,4.2,1,6.6,1c3.2,0,6.4-0.6,9.4-1.2c1.8-0.4,3.7-0.6,5.3-0.9c-3.6,6.3-10.9,13.8-25.7,16.4
		c-1.4,0.2-2.7,0.4-4.2,0.4c-4.8,0-9.6-1.3-14.8-2.7c-1.7-0.5-3.6-1-5.6-1.5c-4.2-1-8.3-1.5-12.1-1.5c-5.5,0-10.6,1-15.5,3.1
		c-3.3,1.4-6.7,2.9-10,4.3L48,147l3.2,4c0.7,0.8,1.4,1.7,2.2,2.6c8.7,9.8,19.8,17.3,32.2,21.6c8.2,2.9,16.8,4.3,25.4,4.3l0,0
		c32.8,0,62.2-20.8,73-51.8C190.9,108.3,189.7,87.4,180.7,68.8z M160.1,118.7l1.9-7.8l-8,1.1c-1.5,0.2-3,0.4-4.5,0.6l-0.2,0
		c-3.5,0.5-6.9,0.9-10.4,1.6c-2.9,0.6-5.3,1-7.3,1c-1.2,0-2.1-0.1-2.9-0.4c-1.3-0.5-2.5-1.4-3.6-2.8c-5.8-7.2-7.6-13.5-5.8-20.4
		c2-7.6,3.3-8.7,11.4-9.8c3.6-0.5,7-1.3,10.9-2.2l-0.2-0.8l0.4,0.8c1.8-0.4,3.6-0.9,5.6-1.3l9.8-2.1l-7.2-7.1
		c-0.9-0.9-1.6-1.6-2.3-2.3l-0.2-0.2c-1-1-1.9-1.9-2.7-2.6c-5.1-4.8-10.8-8.4-17-10.6c-4.6-1.6-9.4-2.4-14.4-2.4
		c-10,0-20.1,3.3-29.3,9.6C76.3,65.8,70.2,74,66.4,84.3c-3.7,10.2-10.7,17.6-21.5,22.7c-0.6-9,0.6-18.2,3.5-26.7
		c9.3-26.6,34.5-44.5,62.7-44.5c7.4,0,14.8,1.3,21.8,3.7c34.6,12.1,52.8,50,40.8,84.6c-9.3,26.6-34.5,44.5-62.7,44.5
		c-7.4,0-14.8-1.2-21.8-3.7c-8.5-3-16.5-7.8-23.1-13.9l6.8-2.9c6.1-2.6,12.7-2.9,20.7-1c1.6,0.4,3.3,0.9,4.9,1.3l0.4,0.1
		c5.6,1.5,11.4,3.1,17.7,3.1c2.1,0,4.1-0.2,6-0.5C142.2,147.6,155.8,135.8,160.1,118.7z"/>
	<polygon class="st0" points="525.6,121.5 520.6,141.5 505.3,78.3 486.4,78.3 475.7,121.6 472.6,134.7 470.9,141.5 469.3,134.7 
		454.9,78.3 439.7,78.3 461.2,157.5 480.6,157.5 491.2,114.1 495.7,94.9 497.1,101.2 510.7,157.5 529.8,157.5 552,78.3 536.6,78.3 	
		"/>
	<path class="st0" d="M603.8,143.9c-1.6,1-5.9,2.1-16.6,2.1c-11,0-15.1-2.3-16.6-4.3c-1.5-2-3.3-7-3.5-20.1h54.6V114
		c0-15-2.3-24.7-7-29.6c-4.7-4.9-14.1-7.3-28.7-7.3c-13.4,0-22.3,2.7-27.1,8.4c-4.7,5.6-7,15.9-7,31.6c0,16.9,2.3,27.8,6.9,33.3
		c4.7,5.5,14.2,8.3,28.8,8.3c12.5,0,21-1.6,26.1-5c4.6-3,7.2-8.1,7.8-15h-14.9C606.3,141.3,605.4,143,603.8,143.9z M570.9,93.5
		c1.6-1.7,5.7-3.8,16.2-3.8c10.5,0,14.7,1.8,16.3,3.2c1.6,1.5,3.5,5.2,3.5,14.8l0,1.8h-39.6C567.5,99.3,569.3,95.2,570.9,93.5z"/>
	<path class="st0" d="M734.8,143.9c-1.6,1-5.9,2.1-16.6,2.1c-11,0-15.1-2.3-16.6-4.3c-1.5-2-3.3-7-3.5-20.1h54.6V114
		c0-15-2.3-24.7-7-29.6c-4.7-4.9-14.1-7.3-28.7-7.3c-13.4,0-22.3,2.7-27.1,8.4c-4.7,5.6-7,15.9-7,31.6c0,16.9,2.3,27.8,6.9,33.3
		c4.7,5.5,14.2,8.3,28.8,8.3c12.5,0,21-1.6,26.1-5c4.6-3,7.2-8.1,7.8-15h-14.9C737.3,141.3,736.3,143,734.8,143.9z M701.8,93.5
		c1.6-1.7,5.7-3.8,16.2-3.8c10.5,0,14.7,1.8,16.3,3.2c1.6,1.5,3.5,5.2,3.5,14.8l0,1.8h-39.6C698.5,99.3,700.3,95.2,701.8,93.5z"/>
	<polygon class="st0" points="297.7,45.8 203.3,45.8 203.3,60.6 236.9,60.6 236.9,157.5 252.5,157.5 252.5,60.6 297.7,60.6 	"/>
	<path class="st0" d="M299.7,77.2c-14.6,0-23.9,2.6-28.5,7.9c-4.5,5.2-6.7,16-6.7,32.8c0,16.9,2.2,27.6,6.7,32.8
		c4.6,5.3,13.9,7.9,28.5,7.9c14.7,0,24-2.6,28.6-7.9c4.5-5.2,6.7-16,6.7-32.8c0-16.9-2.2-27.6-6.7-32.8
		C323.7,79.8,314.4,77.2,299.7,77.2z M316.7,141.9c-1.4,1.9-5.4,4.1-17,4.1c-11.5,0-15.5-2.2-16.9-4.1c-1.5-2-3.2-7.8-3.2-24
		c0-16.2,1.7-22,3.2-24c1.4-1.9,5.4-4.1,16.9-4.1c11.6,0,15.6,2.2,17,4.1c1.5,2,3.2,7.8,3.2,24C319.9,134.1,318.1,139.9,316.7,141.9
		z"/>
	<path class="st0" d="M377.8,77.2c-14.6,0-23.9,2.6-28.5,7.9c-4.5,5.2-6.7,16-6.7,32.8c0,16.9,2.2,27.6,6.7,32.8
		c4.6,5.3,13.9,7.9,28.5,7.9c14.7,0,24-2.6,28.6-7.9c4.5-5.2,6.7-16,6.7-32.8c0-16.9-2.2-27.6-6.7-32.8
		C401.8,79.8,392.5,77.2,377.8,77.2z M394.8,141.9c-1.4,1.9-5.4,4.1-17,4.1c-11.5,0-15.5-2.2-16.9-4.1c-1.5-2-3.2-7.8-3.2-24
		c0-16.3,1.7-22,3.2-24c1.4-1.9,5.4-4.1,16.9-4.1c11.6,0,15.6,2.2,17,4.1c1.5,2,3.2,7.8,3.2,24C398,134.1,396.3,139.9,394.8,141.9z"
		/>
	<rect x="422.9" y="56.8" class="st0" width="14.5" height="100.7"/>
	<rect x="631.8" y="56.8" class="st0" width="14.5" height="100.7"/>
	<rect x="658.4" y="56.8" class="st0" width="14.5" height="100.7"/>
</g>
</svg>
