<svg xmlns="http://www.w3.org/2000/svg" viewBox="0 0 72 67"><defs><style>.a{fill:#ea5b13;}</style></defs><title>toolwelle</title><path class="a" d="M54.73,11.78A20.8,20.8,0,0,0,15.47,24.22c0.06,0.32.11,0.61,0.17,0.89l0.28,1.3,3.5-1.67A13.49,13.49,0,0,0,26.7,17a10.06,10.06,0,0,1,3.65-5,10.27,10.27,0,0,1,9.14-1.59,9.66,9.66,0,0,1,3,1.69c-0.52.12-1.06,0.22-1.59,0.3-3.34.44-4.68,1.6-5.52,4.79-0.74,2.8-.07,5.37,2.11,8.08a5.07,5.07,0,0,0,2.3,1.68,5.34,5.34,0,0,0,1.77.28,13.13,13.13,0,0,0,2.53-.33c0.49-.1,1-0.17,1.44-0.24-1,1.71-2.93,3.72-6.92,4.43a6.32,6.32,0,0,1-1.12.1,15.49,15.49,0,0,1-4-.74c-0.46-.13-1-0.27-1.5-0.39a14,14,0,0,0-3.25-.41,10.34,10.34,0,0,0-4.17.84l-2.69,1.15L19,32.86l0.88,1.08c0.18,0.23.38,0.46,0.59,0.7a20.76,20.76,0,0,0,15.53,7h0A20.8,20.8,0,0,0,54.73,11.78ZM49.18,25.23l0.52-2.1-2.15.3-1.22.16H46.28c-1,.12-1.86.24-2.8,0.42a10.5,10.5,0,0,1-2,.26,2.31,2.31,0,0,1-.78-0.11,2.21,2.21,0,0,1-1-.75c-1.57-1.95-2-3.65-1.56-5.5,0.54-2,.88-2.34,3.07-2.63a29,29,0,0,0,2.93-.59l-0.05-.22,0.1,0.21,1.51-.35,2.64-.58-1.93-1.9-0.61-.61-0.06-.06L45,10.47a12.79,12.79,0,0,0-4.59-2.84A11.69,11.69,0,0,0,36.59,7,14,14,0,0,0,28.7,9.56,13.07,13.07,0,0,0,23.95,16a10.69,10.69,0,0,1-5.79,6.12A17.88,17.88,0,0,1,36,2.93,17.88,17.88,0,0,1,36,38.7,17.87,17.87,0,0,1,23.87,34l1.84-.79a8.51,8.51,0,0,1,5.58-.27l1.32,0.35,0.1,0a17.8,17.8,0,0,0,4.76.84A9.23,9.23,0,0,0,39.09,34C44.35,33,48,29.84,49.18,25.23Z"/><polygon class="a" points="42.24 62.14 41.59 64.76 39.58 56.47 37.11 56.47 35.7 62.15 35.29 63.87 35.07 64.76 34.86 63.86 32.97 56.47 30.98 56.47 33.8 66.85 36.34 66.85 37.73 61.16 38.33 58.65 38.51 59.48 40.29 66.85 42.79 66.85 45.7 56.47 43.68 56.47 42.24 62.14"/><path class="a" d="M52.5,65.07a4.93,4.93,0,0,1-2.17.28c-1.44,0-2-.3-2.18-0.56a4.83,4.83,0,0,1-.46-2.64h7.15v-1c0-2-.3-3.24-0.91-3.88s-1.85-1-3.76-1-2.92.36-3.55,1.1-0.92,2.08-.92,4.14c0,2.22.3,3.64,0.91,4.36S48.47,67,50.39,67a6.48,6.48,0,0,0,3.42-.66,2.44,2.44,0,0,0,1-2h-2A0.92,0.92,0,0,1,52.5,65.07Zm-4.32-6.6a2.94,2.94,0,0,1,2.13-.5,3.34,3.34,0,0,1,2.14.43,2.64,2.64,0,0,1,.46,1.94v0.24H47.71A3.31,3.31,0,0,1,48.18,58.47Z"/><path class="a" d="M69.66,65.07a4.93,4.93,0,0,1-2.17.28c-1.44,0-2-.3-2.18-0.56a4.83,4.83,0,0,1-.46-2.64H72v-1c0-2-.3-3.24-0.91-3.88s-1.85-1-3.76-1-2.92.36-3.55,1.1-0.92,2.08-.92,4.14c0,2.22.3,3.64,0.91,4.36S65.63,67,67.55,67A6.48,6.48,0,0,0,71,66.34a2.44,2.44,0,0,0,1-2H70A0.92,0.92,0,0,1,69.66,65.07Zm-4.32-6.6a2.94,2.94,0,0,1,2.13-.5,3.34,3.34,0,0,1,2.14.43,2.64,2.64,0,0,1,.46,1.94v0.24H64.87A3.31,3.31,0,0,1,65.34,58.47Z"/><polygon class="a" points="12.36 52.22 0 52.22 0 54.15 4.4 54.15 4.4 66.85 6.45 66.85 6.45 54.15 12.36 54.15 12.36 52.22"/><path class="a" d="M12.63,56.33c-1.91,0-3.14.34-3.73,1S8,59.45,8,61.66s0.29,3.62.87,4.3,1.82,1,3.73,1,3.15-.34,3.74-1,0.87-2.09.87-4.3S17,58,16.37,57.36,14.55,56.33,12.63,56.33Zm2.23,8.48c-0.18.24-.71,0.54-2.23,0.54s-2-.29-2.22-0.54-0.42-1-.42-3.15,0.23-2.89.42-3.15S11.13,58,12.63,58s2,0.29,2.23.54,0.42,1,.42,3.15S15,64.55,14.86,64.81Z"/><path class="a" d="M22.87,56.33c-1.92,0-3.14.34-3.73,1s-0.87,2.09-.87,4.3,0.29,3.62.87,4.3,1.82,1,3.73,1,3.15-.34,3.74-1,0.87-2.09.87-4.3-0.29-3.62-.87-4.3S24.79,56.33,22.87,56.33Zm2.23,8.48c-0.18.24-.71,0.54-2.23,0.54s-2-.29-2.22-0.54-0.42-1-.42-3.15,0.23-2.89.42-3.15S21.36,58,22.87,58s2,0.29,2.23.54,0.42,1,.42,3.15S25.29,64.55,25.1,64.81Z"/><rect class="a" x="28.78" y="53.65" width="1.9" height="13.2"/><rect class="a" x="56.16" y="53.65" width="1.9" height="13.2"/><rect class="a" x="59.64" y="53.65" width="1.9" height="13.2"/></svg>